<?xml version="1.0" encoding="iso-8859-1"?>
<!-- Generator: Adobe Illustrator 19.0.0, SVG Export Plug-In . SVG Version: 6.00 Build 0)  -->
<svg version="1.1" id="Capa_1" xmlns="http://www.w3.org/2000/svg" xmlns:xlink="http://www.w3.org/1999/xlink" x="0px" y="0px"
	 viewBox="0 0 512 512" style="enable-background:new 0 0 512 512;" xml:space="preserve">
<path style="fill:#58565C;" d="M255.999,0c-4.204,0-7.611,3.408-7.611,7.611v57.34c0,4.204,3.408,7.611,7.611,7.611
	c4.204,0,7.612-3.408,7.612-7.611V7.611C263.611,3.408,260.203,0,255.999,0z"/>
<path style="fill:#985335;" d="M323.252,108.488l-62.946-62.945c-2.378-2.378-6.233-2.378-8.611,0l-62.947,62.945v5.176h134.505
	v-5.176H323.252z"/>
<path style="fill:#87462A;" d="M251.694,45.542l-5.843,5.843l57.103,57.102v5.176h20.297v-5.176l-62.946-62.945
	C257.928,43.165,254.072,43.164,251.694,45.542z"/>
<rect x="188.744" y="108.489" style="fill:#FFD151;" width="134.5" height="38.697"/>
<rect x="302.957" y="108.489" style="fill:#F79B4A;" width="20.297" height="38.697"/>
<path style="fill:#985335;" d="M373.691,192.554l-15.426-46.276c-0.829-2.486-3.156-4.164-5.777-4.164H159.512
	c-2.621,0-4.947,1.678-5.777,4.164l-15.426,46.276v10.42h235.383v-10.42H373.691z"/>
<g>
	<path style="fill:#87462A;" d="M358.266,146.278c-0.829-2.486-3.156-4.164-5.777-4.164h-20.266c2.621,0,4.947,1.678,5.777,4.164
		l15.426,46.276v10.419h20.266v-10.419L358.266,146.278z"/>
	<path style="fill:#87462A;" d="M256.001,159.723c-4.204,0-7.612,3.408-7.612,7.611v25.218c0,4.204,3.408,7.611,7.612,7.611
		c4.204,0,7.611-3.408,7.611-7.611v-25.218C263.612,163.131,260.204,159.723,256.001,159.723z"/>
	<path style="fill:#87462A;" d="M188.748,159.723c-4.204,0-7.611,3.408-7.611,7.611v25.218c0,4.204,3.408,7.611,7.611,7.611
		c4.204,0,7.611-3.408,7.611-7.611v-25.218C196.36,163.131,192.953,159.723,188.748,159.723z"/>
	<path style="fill:#87462A;" d="M323.252,159.723c-4.204,0-7.611,3.408-7.611,7.611v25.218c0,4.204,3.408,7.611,7.611,7.611
		c4.204,0,7.612-3.408,7.612-7.611v-25.218C330.863,163.131,327.455,159.723,323.252,159.723z"/>
</g>
<path style="fill:#F79B4A;" d="M365.283,446.541v59.37c0,3.363-2.726,6.089-6.089,6.089H152.805c-3.363,0-6.089-2.726-6.089-6.089
	v-59.37H365.283z"/>
<path style="fill:#FFD151;" d="M384.414,461.559H127.586c-3.363,0-6.089-2.726-6.089-6.089V198.642c0-3.363,2.726-6.089,6.089-6.089
	h256.827c3.363,0,6.089,2.726,6.089,6.089v256.827C390.503,458.832,387.776,461.559,384.414,461.559z"/>
<path style="fill:#F79B4A;" d="M384.414,192.553h-20.297c3.363,0,6.089,2.726,6.089,6.089v256.827c0,3.363-2.726,6.089-6.089,6.089
	h20.297c3.363,0,6.089-2.726,6.089-6.089V198.642C390.503,195.28,387.776,192.553,384.414,192.553z"/>
<circle style="fill:#58565C;" cx="255.999" cy="327.051" r="100.878"/>
<path style="fill:#49484D;" d="M255.998,226.177c-3.426,0-6.811,0.173-10.149,0.506c50.947,5.09,90.729,48.084,90.729,100.371
	c0,52.288-39.782,95.282-90.729,100.371c3.338,0.334,6.722,0.506,10.149,0.506c55.713,0,100.878-45.165,100.878-100.878
	C356.877,271.342,311.712,226.177,255.998,226.177z"/>
<g>
	<path style="fill:#58565C;" d="M163.529,218.566h-16.812c-4.204,0-7.611,3.408-7.611,7.611c0,4.204,3.408,7.612,7.611,7.612h16.812
		c4.204,0,7.611-3.408,7.611-7.612C171.14,221.974,167.733,218.566,163.529,218.566z"/>
	<path style="fill:#58565C;" d="M348.47,233.789h16.812c4.204,0,7.612-3.408,7.612-7.612c0-4.204-3.408-7.611-7.612-7.611H348.47
		c-4.204,0-7.611,3.408-7.611,7.611C340.859,230.381,344.266,233.789,348.47,233.789z"/>
	<path style="fill:#58565C;" d="M163.529,420.322h-16.812c-4.204,0-7.611,3.408-7.611,7.612c0,4.204,3.408,7.611,7.611,7.611h16.812
		c4.204,0,7.611-3.408,7.611-7.611C171.14,423.73,167.733,420.322,163.529,420.322z"/>
	<path style="fill:#58565C;" d="M365.283,420.322h-16.812c-4.204,0-7.612,3.408-7.612,7.612c0,4.204,3.408,7.611,7.612,7.611h16.812
		c4.204,0,7.611-3.408,7.611-7.611C372.895,423.73,369.487,420.322,365.283,420.322z"/>
</g>
<circle style="fill:#B6E3EE;" cx="255.999" cy="327.051" r="75.658"/>
<path style="fill:#96D2E0;" d="M255.998,251.396c-3.465,0-6.868,0.254-10.209,0.705c36.954,4.988,65.451,36.634,65.451,74.954
	c0,38.321-28.496,69.967-65.451,74.955c3.341,0.451,6.744,0.704,10.209,0.704c41.785,0,75.659-33.874,75.659-75.659
	S297.785,251.396,255.998,251.396z"/>
<g>
	<path style="fill:#58565C;" d="M289.624,319.443h-26.013v-42.826c0-4.204-3.408-7.611-7.612-7.611
		c-4.204,0-7.611,3.408-7.611,7.611v50.438c0,4.204,3.408,7.611,7.611,7.611h33.625c4.204,0,7.612-3.408,7.612-7.611
		C297.236,322.851,293.829,319.443,289.624,319.443z"/>
	<path style="fill:#58565C;" d="M340.064,479.167H171.935c-4.204,0-7.611,3.408-7.611,7.611V512l0,0h15.223l0,0v-17.61h152.906V512
		l0,0h15.223l0,0v-25.221C347.675,482.575,344.267,479.167,340.064,479.167z"/>
</g>
<g>
</g>
<g>
</g>
<g>
</g>
<g>
</g>
<g>
</g>
<g>
</g>
<g>
</g>
<g>
</g>
<g>
</g>
<g>
</g>
<g>
</g>
<g>
</g>
<g>
</g>
<g>
</g>
<g>
</g>
</svg>
