<svg height="496pt" viewBox="0 0 496 496" width="496pt" xmlns="http://www.w3.org/2000/svg"><g fill="#f0bc5e"><path d="m176 319.382812h16v104.617188h-16zm0 0"/><path d="m208 331.695312h16v92.304688h-16zm0 0"/><path d="m240 344h16v80h-16zm0 0"/><path d="m272 356.304688h16v67.695312h-16zm0 0"/><path d="m304 368.617188h16v55.382812h-16zm0 0"/><path d="m312 136-32 25.550781v131.394531l16 8v51.054688h40v-208zm0 0"/></g><path d="m408 472c0-10.414062-6.710938-19.214844-16-22.527344v-9.472656c0-13.230469-10.769531-24-24-24h-16.761719l-7.238281-72v-128h5.40625c15.035156 0 28.96875-5.976562 39.195312-16h51.398438c8.824219 0 16-7.175781 16-16v-16c0-8.824219-7.175781-16-16-16h-39.023438l-82.191406-20.425781c.78125-3.734375 1.214844-7.605469 1.214844-11.574219v-48c0-39.695312-32.296875-72-72-72s-72 32.304688-72 72v48c0 3.96875.433594 7.839844 1.214844 11.574219l-82.191406 20.425781h-39.023438c-8.824219 0-16 7.175781-16 16v16c0 8.824219 7.175781 16 16 16h51.398438c10.226562 10.023438 24.167968 16 39.195312 16h12.789062l-14.808593 200h-16.574219c-13.230469 0-24 10.769531-24 24v9.472656c-9.289062 3.3125-16 12.113282-16 22.527344v8h-56v16h432v-16h-56zm-5.480469-294.289062 3.25-9.710938h34.230469v16h-40.144531c.976562-2.046875 1.9375-4.097656 2.664062-6.289062zm-58.519531-23.382813 45.671875 11.34375-2.320313 6.976563c-5.457031 16.359374-20.703124 27.351562-37.945312 27.351562h-5.40625zm-152-82.328125c0-30.878906 25.128906-56 56-56s56 25.121094 56 56v48c0 2.863281-.328125 5.648438-.902344 8.34375-1.859375-.191406-3.722656-.34375-5.585937-.34375h-17.511719v-16.007812h-.199219c5.070313-6.703126 8.199219-14.960938 8.199219-23.992188v-16c0-22.054688-17.945312-40-40-40s-40 17.945312-40 40v16c0 9.03125 3.128906 17.289062 8.199219 23.992188h-.199219v16.007812h-17.527344c-1.855468 0-3.710937.152344-5.570312.335938-.574219-2.6875-.902344-5.472657-.902344-8.335938zm40 88c-13.015625 0-24.488281-6.34375-31.800781-16h19.800781zm-8-72v-16c0-13.230469 10.769531-24 24-24s24 10.769531 24 24v16c0 13.230469-10.769531 24-24 24s-24-10.769531-24-24zm8 45.335938v-8.726563c4.910156 2.160156 10.304688 3.390625 16 3.390625s11.089844-1.230469 16-3.390625v8.726563l-16 21.335937zm44 10.664062h19.800781c-7.3125 9.65625-18.785156 16-31.792969 16zm-220 40v-16h34.238281l3.242188 9.703125c.726562 2.191406 1.695312 4.25 2.664062 6.296875zm90.59375 16c-17.242188 0-32.496094-10.992188-37.945312-27.351562l-2.320313-6.976563 47.496094-11.800781c7.238281 36.359375 36.078125 65.375 73.121093 72.144531l2.503907.457031c17.527343 3.207032 30.183593 5.527344 50.550781 5.527344v-16c-18.910156 0-30.976562-2.207031-47.671875-5.265625l-2.511719-.460937c-30.800781-5.625-54.746094-29.90625-60.472656-60.257813l13.433594-3.335937c9.503906 17.457031 28 29.320312 49.222656 29.320312h32c21.222656 0 39.726562-11.863281 49.222656-29.3125l14.777344 3.664062.039062 194.449219 2.226563 22.269531-161.425781-62.085937 7.777344-104.984375zm21.007812 121.648438 164.445313 63.246093 3.113281 31.105469h-174.542968zm-39.601562 110.351562h240c4.414062 0 8 3.59375 8 8v8h-256v-8c0-4.40625 3.585938-8 8-8zm-24 40c0-4.40625 3.585938-8 8-8h272c4.414062 0 8 3.59375 8 8v8h-288zm0 0"/><path d="m0 480h16v16h-16zm0 0"/><path d="m480 480h16v16h-16zm0 0"/></svg>